# xmcd CD database file
#
# Track frame offsets:
#	150
#	12394
#	26687
#	36771
#	54054
#	65483
#	78655
#	92329
#	101044
#	128426
#	149802
#	159181
#
# Disc length: 2212 seconds
#
# Revision: 0
# Processed by: cddbd v1.5.2PL0 Copyright (c) Steve Scherf et al.
# Submitted via: CDex 1.98
#
DISCID=9208a20c
DTITLE=Carsten Dahl - Grace
DYEAR=2014
DGENRE=Jazz
TTITLE0=Grace #1
TTITLE1=Grace #2
TTITLE2=Grace #3
TTITLE3=Grace #4
TTITLE4=Grace #5
TTITLE5=Grace #6
TTITLE6=Grace #7
TTITLE7=Grace #8
TTITLE8=Grace #9
TTITLE9=Grace #10
TTITLE10=Grace #11
TTITLE11=Grace #12
EXTD=YEAR: 2014
EXTT0=
EXTT1=
EXTT2=
EXTT3=
EXTT4=
EXTT5=
EXTT6=
EXTT7=
EXTT8=
EXTT9=
EXTT10=
EXTT11=
PLAYORDER=
